<svg width="32" height="32" viewBox="0 0 32 32" fill="none" xmlns="http://www.w3.org/2000/svg">
<circle cx="16" cy="8.49915" r="4.5" stroke="#B3B3B3" stroke-width="2"/>
<path d="M16 15.9991C21.4184 15.9991 25.5 19.462 25.5 23.9991C25.5 25.1836 25.2621 25.9351 24.9248 26.4327C24.5946 26.9198 24.0965 27.2713 23.3574 27.5187C22.6003 27.7721 21.6392 27.8998 20.46 27.9572C19.2824 28.0144 17.9688 27.9991 16.5 27.9991C13.52 27.9991 10.957 28.0499 9.10645 27.507C8.21437 27.2452 7.58931 26.8703 7.18066 26.3654C6.77967 25.8697 6.5 25.1409 6.5 23.9991C6.5 19.462 10.5816 15.9991 16 15.9991Z" stroke="#B3B3B3" stroke-width="2"/>
</svg>
