<svg width="24" height="24" viewBox="0 0 24 24" fill="none" xmlns="http://www.w3.org/2000/svg">
<path d="M1.84098 23.9984C1.57479 23.9993 1.31161 23.9422 1.06968 23.8312C0.827756 23.7202 0.612877 23.5579 0.439955 23.3555C0.267033 23.1531 0.140206 22.9156 0.0682735 22.6593C-0.00365882 22.403 -0.0189746 22.1341 0.0233886 21.8713L0.794882 16.9983C0.853151 16.6147 1.03351 16.2601 1.30921 15.9871L16.4776 0.81872C17.0044 0.294369 17.7175 0 18.4608 0C19.2041 0 19.9172 0.294369 20.444 0.81872L23.1813 3.556C23.7056 4.08284 24 4.79591 24 5.53922C24 6.28253 23.7056 6.99559 23.1813 7.52243L8.01293 22.6908C7.73991 22.9665 7.38531 23.1468 7.0017 23.2051L2.12865 23.9766C2.03336 23.9904 1.93725 23.9976 1.84098 23.9984ZM18.4608 1.74277C18.3209 1.74224 18.1823 1.76929 18.0529 1.8224C17.9235 1.8755 17.8059 1.95361 17.7067 2.05224L2.54273 17.2293C2.53505 17.2358 2.52877 17.2438 2.52428 17.2528C2.51978 17.2618 2.51716 17.2716 2.51658 17.2816L1.74508 22.1459C1.74288 22.1608 1.74417 22.1759 1.74887 22.1901C1.75357 22.2044 1.76153 22.2173 1.77212 22.2279C1.78272 22.2385 1.79565 22.2464 1.80988 22.2511C1.8241 22.2558 1.83923 22.2571 1.85405 22.2549L6.7271 21.4834C6.74426 21.4801 6.7597 21.4709 6.77069 21.4573L21.939 6.29328C22.1384 6.09384 22.2504 5.82339 22.2504 5.5414C22.2504 5.2594 22.1384 4.98895 21.939 4.78952L19.2105 2.05224C19.1123 1.95354 18.9954 1.87536 18.8667 1.82223C18.738 1.7691 18.6 1.74209 18.4608 1.74277Z" fill="#B3B3B3"/>
<path d="M20.0884 10.1054C19.9802 10.106 19.873 10.0853 19.7728 10.0444C19.6726 10.0036 19.5815 9.94336 19.5047 9.86726L14.3456 4.71496C14.1913 4.56089 14.1047 4.35193 14.1047 4.13404C14.1047 3.91615 14.1913 3.70719 14.3456 3.55312C14.4999 3.39905 14.7091 3.3125 14.9273 3.3125C15.1455 3.3125 15.3547 3.39905 15.509 3.55312L20.6681 8.70542C20.7445 8.78168 20.8051 8.87224 20.8465 8.97191C20.8879 9.07159 20.9092 9.17844 20.9092 9.28634C20.9092 9.39424 20.8879 9.50109 20.8465 9.60077C20.8051 9.70044 20.7445 9.791 20.6681 9.86726C20.5139 10.0199 20.3055 10.1055 20.0884 10.1054ZM6.67578 23.1758C6.45867 23.176 6.43845 23.2271 6.28431 23.0744L1.12112 17.918C0.979683 17.7615 0.903901 17.5568 0.909466 17.3461C0.915031 17.1354 1.00152 16.9349 1.15102 16.7861C1.30052 16.6373 1.50158 16.5517 1.71257 16.5469C1.92357 16.542 2.12834 16.6184 2.28448 16.7603L7.44767 21.9126C7.5622 22.0276 7.64003 22.174 7.67134 22.3332C7.70264 22.4924 7.68602 22.6573 7.62357 22.8071C7.56112 22.9568 7.44139 22.9844 7.3062 23.0744C7.171 23.1643 6.83824 23.1759 6.67578 23.1758Z" fill="#B3B3B3"/>
<path d="M2.58261 22.3111C2.4044 22.3131 2.15807 22.6763 2.00918 22.5783C1.8603 22.4804 1.74404 22.3402 1.67529 22.1758C1.60654 22.0114 1.66003 21.4157 1.69488 21.2409C1.72972 21.0661 1.81593 20.9057 1.94248 20.7803L16.3522 6.38926C16.4307 6.29045 16.5291 6.20935 16.6411 6.15127C16.7532 6.09319 16.8762 6.05944 17.0022 6.05224C17.1281 6.04504 17.2542 6.06455 17.3721 6.10948C17.49 6.15442 17.5971 6.22377 17.6863 6.31299C17.7756 6.40221 17.8449 6.50928 17.8899 6.62718C17.9348 6.74508 17.9543 6.87115 17.9471 6.99712C17.9399 7.12309 17.9062 7.24611 17.8481 7.35812C17.79 7.47013 17.7089 7.5686 17.6101 7.64707L3.21827 22.056C3.04858 22.2219 2.81994 22.3137 2.58261 22.3111Z" fill="#B3B3B3"/>
</svg>
