<svg width="20" height="29" viewBox="0 0 20 29" fill="none" xmlns="http://www.w3.org/2000/svg">
<g clip-path="url(#clip0_2113_1058)">
<path d="M0 0H20V29L0 25V0Z" fill="#F50723"/>
<path d="M5.43422 10H4.13022V5.56H2.36222V4.432H7.20222V5.56H5.43422V10ZM9.93716 10.128C9.52116 10.128 9.13716 10.056 8.79316 9.912C8.44116 9.768 8.13716 9.568 7.88916 9.304C7.63316 9.04 7.43316 8.736 7.29716 8.376C7.15316 8.024 7.08116 7.64 7.08116 7.216C7.08116 6.792 7.15316 6.408 7.29716 6.048C7.43316 5.696 7.63316 5.392 7.88916 5.128C8.13716 4.864 8.44116 4.664 8.79316 4.52C9.13716 4.376 9.52116 4.304 9.93716 4.304C10.3612 4.304 10.7452 4.376 11.0972 4.52C11.4412 4.664 11.7452 4.864 12.0012 5.128C12.2572 5.392 12.4572 5.696 12.6012 6.048C12.7372 6.408 12.8092 6.792 12.8092 7.216C12.8092 7.64 12.7372 8.024 12.6012 8.376C12.4572 8.736 12.2572 9.04 12.0012 9.304C11.7452 9.568 11.4412 9.768 11.0972 9.912C10.7452 10.056 10.3612 10.128 9.93716 10.128ZM9.93716 8.976C10.2412 8.976 10.5132 8.904 10.7452 8.752C10.9772 8.608 11.1532 8.4 11.2892 8.136C11.4252 7.872 11.4892 7.568 11.4892 7.216C11.4892 6.864 11.4252 6.552 11.2892 6.288C11.1532 6.024 10.9772 5.824 10.7452 5.672C10.5132 5.528 10.2412 5.456 9.93716 5.456C9.64116 5.456 9.37716 5.528 9.14516 5.672C8.91316 5.824 8.72916 6.024 8.60116 6.288C8.46516 6.552 8.40116 6.864 8.40116 7.216C8.40116 7.568 8.46516 7.872 8.60116 8.136C8.72916 8.4 8.91316 8.608 9.14516 8.752C9.37716 8.904 9.64116 8.976 9.93716 8.976ZM13.1737 10V4.432H15.4777C15.9337 4.432 16.3337 4.512 16.6617 4.672C16.9897 4.832 17.2457 5.056 17.4217 5.344C17.5977 5.632 17.6857 5.968 17.6857 6.352C17.6857 6.736 17.5977 7.072 17.4217 7.36C17.2457 7.656 16.9897 7.88 16.6617 8.04C16.3337 8.2 15.9337 8.28 15.4777 8.28H14.4777V10H13.1737ZM14.4777 7.176H15.2857C15.6617 7.176 15.9337 7.104 16.1097 6.96C16.2777 6.824 16.3657 6.616 16.3657 6.352C16.3657 6.088 16.2777 5.888 16.1097 5.744C15.9337 5.608 15.6617 5.536 15.2857 5.536H14.4777V7.176Z" fill="white"/>
<path d="M5.56304 20V13.071L3.49604 13.643V11.862L7.61704 10.783V20H5.56304ZM12.978 20.195C12.237 20.195 11.587 20 11.028 19.61C10.469 19.233 10.027 18.687 9.728 17.972C9.429 17.27 9.273 16.438 9.273 15.476C9.273 14.527 9.429 13.695 9.728 12.98C10.027 12.265 10.469 11.719 11.028 11.329C11.587 10.952 12.237 10.757 12.978 10.757C13.719 10.757 14.382 10.952 14.941 11.329C15.5 11.719 15.929 12.265 16.228 12.98C16.527 13.695 16.683 14.527 16.683 15.476C16.683 16.438 16.527 17.27 16.228 17.972C15.929 18.687 15.5 19.233 14.941 19.61C14.382 20 13.719 20.195 12.978 20.195ZM12.978 18.375C13.485 18.375 13.875 18.115 14.161 17.608C14.447 17.101 14.59 16.399 14.59 15.476C14.59 14.553 14.447 13.838 14.161 13.331C13.875 12.824 13.485 12.577 12.978 12.577C12.471 12.577 12.081 12.824 11.795 13.331C11.509 13.838 11.366 14.553 11.366 15.476C11.366 16.399 11.509 17.101 11.795 17.608C12.081 18.115 12.471 18.375 12.978 18.375Z" fill="white"/>
</g>
<defs>
<clipPath id="clip0_2113_1058">
<path d="M0 0H18C19.1046 0 20 0.895431 20 2V29H0V0Z" fill="white"/>
</clipPath>
</defs>
</svg>
